<svg xmlns="http://www.w3.org/2000/svg" viewBox="0 0 200 200"><defs><style>.a{fill:#85929e;}</style></defs><path class="a" d="M99.09,24A45.45,45.45,0,0,0,54,63.13h-.12l-.07,1.24a45.91,45.91,0,0,0-.33,5.28v6.52a13.07,13.07,0,0,0-13,13V161a13.06,13.06,0,0,0,13,13h91.3a13.06,13.06,0,0,0,13-13V89.22a13.07,13.07,0,0,0-13-13V69.65a45.91,45.91,0,0,0-.33-5.28l-.07-1.24h-.12A45.45,45.45,0,0,0,99.09,24Zm0,19.57a26,26,0,0,1,24,16,26.12,26.12,0,0,1,2.05,10.12v6.53H73V69.65a27.23,27.23,0,0,1,.61-5.3,26.23,26.23,0,0,1,2.5-6.76c.34-.63.64-1.28,1-1.89s.86-1.2,1.3-1.79a25.12,25.12,0,0,1,1.68-2c.43-.45.87-.87,1.33-1.3a25.88,25.88,0,0,1,2.36-1.94c.44-.33.89-.66,1.36-1A25.22,25.22,0,0,1,88,46.14c.47-.22.92-.47,1.4-.66a25.19,25.19,0,0,1,3.3-1c.47-.12.92-.29,1.4-.39a26.45,26.45,0,0,1,5-.5Z"/></svg>