<svg id="Layer_1" data-name="Layer 1" xmlns="http://www.w3.org/2000/svg" viewBox="-2 0 1000 1000"><path d="M958.86,306.15A499.61,499.61,0,1,0,998,500,496.31,496.31,0,0,0,958.86,306.15Zm16.37,182.53H850.66a348.13,348.13,0,0,0-94-227.94l88.16-87.68C923.25,255.78,972.36,366.61,975.23,488.68ZM500,828.23C319,828.23,171.77,681,171.77,500S319,171.77,500,171.77,828.23,319,828.23,500,681,828.23,500,828.23ZM828.81,157l-88.16,87.68a348.14,348.14,0,0,0-229.33-95.35V24.77C634.31,27.66,745.9,77.5,828.81,157ZM24.64,500c0-258.33,207.13-469.19,464-475.23V149.34a350.84,350.84,0,0,0,0,701.32V975.23C231.77,969.19,24.64,758.33,24.64,500ZM511.32,975.23V850.66a348.13,348.13,0,0,0,227.94-94l87.68,88.16C744.22,923.25,633.39,972.36,511.32,975.23ZM843,828.81l-87.68-88.16a348.14,348.14,0,0,0,95.35-229.33H975.23C972.34,634.31,922.5,745.9,843,828.81Z"/></svg>