<svg xmlns="http://www.w3.org/2000/svg" viewBox="0 0 1000 1000"><g id="Layer_2" data-name="Layer 2"><g id="Layer_1-2" data-name="Layer 1"><path d="M853.55,146.45A500,500,0,1,0,305.38,960.7,500,500,0,0,0,853.55,146.45ZM500,834.29c-184.33,0-334.29-150-334.29-334.29S315.67,165.71,500,165.71,834.29,315.67,834.29,500,684.33,834.29,500,834.29ZM851.32,491.43a348.83,348.83,0,0,0-96.18-233.1l93-92.54c81.52,84.9,132.38,199.44,134.59,325.64ZM836.09,153.64l-93,92.54a348.84,348.84,0,0,0-234.48-97.5V17.23C635.7,19.45,751,71.05,836.09,153.64ZM17.14,500c0-263.38,212-478.18,474.29-482.77V148.68a351.42,351.42,0,0,0,0,702.64V982.77C229.12,978.18,17.14,763.38,17.14,500ZM508.57,982.77V851.32a348.83,348.83,0,0,0,233.1-96.18l92.54,93C749.31,929.7,634.77,980.56,508.57,982.77ZM846.36,836.1l-92.54-93.05a348.84,348.84,0,0,0,97.5-234.48H982.77C980.55,635.7,929,751,846.36,836.1Z"/></g></g></svg>
